<svg version="1.1" id="Layer_1" xmlns="http://www.w3.org/2000/svg" xmlns:xlink="http://www.w3.org/1999/xlink" x="0px" y="0px"
	 width="100%" viewBox="0 0 2000 1500" enable-background="new 0 0 2000 1500" xml:space="preserve">
<path fill="#FFFFFF" opacity="1.000000" stroke="none" 
	d="
M1403.000000,1501.000000 
	C935.333496,1501.000000 468.166931,1501.000000 1.000313,1501.000000 
	C1.000209,1001.000305 1.000209,501.000580 1.000104,1.000649 
	C667.666199,1.000432 1334.332397,1.000432 2000.998901,1.000216 
	C2000.999268,500.999359 2000.999268,1000.998718 2000.999634,1500.999023 
	C1801.833374,1501.000000 1602.666626,1501.000000 1403.000000,1501.000000 
M1140.178223,890.707520 
	C1080.405151,893.769043 1021.618408,887.723328 964.004883,870.746948 
	C947.353943,919.819031 930.976746,968.084106 914.539429,1016.526489 
	C916.561035,1017.097534 918.135803,1017.588562 919.733704,1017.986938 
	C958.588379,1027.673462 998.042053,1033.783569 1037.934814,1036.730225 
	C1095.360352,1040.972046 1152.739624,1041.151001 1210.050659,1034.109009 
	C1238.503906,1030.612793 1265.268555,1022.994324 1290.041016,1008.160767 
	C1311.202148,995.489746 1330.036011,980.637512 1343.365845,959.501770 
	C1355.838379,939.725464 1366.077148,918.892029 1373.545776,896.733521 
	C1386.422485,858.529663 1394.276245,819.518494 1389.991333,779.003967 
	C1386.383667,744.892273 1369.923340,718.087097 1341.282104,699.096252 
	C1322.028442,686.330017 1300.358765,679.361877 1278.109253,674.022583 
	C1247.239624,666.614746 1215.639893,664.417419 1184.213989,660.988708 
	C1178.195068,660.331970 1172.178223,659.656677 1166.107910,658.984070 
	C1168.548706,644.147705 1170.866211,630.060425 1173.184082,615.971436 
	C1241.585327,607.070251 1309.037842,612.240417 1376.179443,624.839661 
	C1391.654053,577.219177 1406.841187,530.483337 1422.117920,483.471893 
	C1395.052124,476.359955 1367.959717,470.842438 1340.482056,468.276062 
	C1307.338745,465.180542 1274.078735,462.859314 1240.816528,461.633057 
	C1201.271118,460.175232 1161.948608,462.832855 1123.416870,473.045807 
	C1076.835449,485.392334 1040.774658,511.034882 1018.372986,554.567688 
	C1004.726013,581.087585 995.615845,609.144958 989.340027,638.157898 
	C982.744202,668.650513 977.290161,699.339600 980.998230,730.749817 
	C984.781189,762.794067 999.248779,788.485657 1027.076660,805.822510 
	C1043.061035,815.780945 1060.701782,821.602905 1078.859009,826.064941 
	C1111.192993,834.011047 1144.365356,835.573486 1177.290649,839.013916 
	C1187.022217,840.030762 1196.762451,840.965942 1206.686768,841.957336 
	C1204.285034,856.969971 1201.977661,871.391907 1199.530396,886.689453 
	C1179.957153,888.026123 1160.538330,889.352234 1140.178223,890.707520 
M820.500000,282.998352 
	C791.077820,282.998352 761.655701,282.998352 732.345337,282.998352 
	C732.345337,335.221832 732.345337,386.793549 732.345337,438.380096 
	C749.732544,438.380096 766.797058,438.380096 784.269287,438.380096 
	C784.269287,403.772400 784.269287,369.506134 784.269287,335.164062 
	C1061.566406,335.164062 1338.451294,335.164062 1615.485596,335.164062 
	C1615.485596,612.204041 1615.485596,888.938782 1615.485596,1165.879883 
	C1338.342896,1165.879883 1061.455688,1165.879883 783.951965,1165.879883 
	C783.951965,1131.261108 783.951965,1096.898560 783.951965,1062.511963 
	C766.397949,1062.511963 749.461548,1062.511963 732.369751,1062.511963 
	C732.369751,1114.443359 732.369751,1166.138550 732.369751,1217.752441 
	C1044.299805,1217.752441 1355.885132,1217.752441 1667.617554,1217.752441 
	C1667.617554,906.124207 1667.617554,594.745178 1667.617554,282.998352 
	C1385.399170,282.998352 1103.449585,282.998352 820.500000,282.998352 
M620.500000,644.069580 
	C608.537170,644.104248 596.574341,644.138855 584.611511,644.173523 
	C584.679321,644.251160 584.747131,644.328796 585.015259,644.635864 
	C707.720520,657.665222 830.648010,670.718140 953.720825,683.786499 
	C955.750610,670.498657 957.742615,657.458191 959.787781,644.069580 
	C846.992493,644.069580 734.246216,644.069580 620.500000,644.069580 
M617.576721,559.230713 
	C614.819824,559.249512 612.062988,559.268372 609.306091,559.287231 
	C609.315002,559.392700 609.323914,559.498108 609.352356,559.833801 
	C729.780457,572.608826 850.251831,585.388489 970.999634,598.197388 
	C975.423767,585.171875 979.756592,572.415283 984.234741,559.230774 
	C861.764771,559.230774 740.159058,559.230774 617.576721,559.230713 
M641.171143,816.145142 
	C645.815857,816.548157 650.460083,816.956543 655.105286,817.353271 
	C688.947388,820.243774 722.789062,823.138611 756.632019,826.018921 
	C785.499268,828.475891 814.368652,830.908630 843.236084,833.364380 
	C877.079834,836.243469 910.922974,839.130920 944.765564,842.024353 
	C974.460266,844.563049 1004.152832,847.128052 1033.848511,849.655518 
	C1047.009033,850.775635 1060.174927,851.831726 1073.338379,852.916870 
	C1069.854248,851.702026 1066.333130,850.846741 1062.829834,849.923340 
	C1037.161987,843.156982 1012.985596,833.413208 992.920410,815.281128 
	C991.651245,814.134216 989.319641,813.710754 987.481873,813.709717 
	C867.370544,813.640015 747.259094,813.648682 627.147705,813.650513 
	C623.690857,813.650574 620.234009,813.650574 616.777100,813.650574 
	C616.771545,813.736633 616.765991,813.822754 616.760437,813.908813 
	C624.588745,814.634949 632.417053,815.361084 641.171143,816.145142 
M867.500000,728.919617 
	C776.586609,728.919617 685.673218,728.919617 594.759766,728.919617 
	C594.757935,729.146362 594.756104,729.373108 594.754211,729.599792 
	C716.720215,742.570435 838.686218,755.541016 960.318298,768.476135 
	C958.035217,755.180603 955.819336,742.276367 953.525757,728.919617 
	C925.436340,728.919617 896.968140,728.919617 867.500000,728.919617 
M780.500366,474.647491 
	C745.673523,474.647491 710.846680,474.647491 676.010742,474.656372 
	C680.161621,475.238159 684.300232,475.933563 688.465332,476.383667 
	C721.403015,479.943329 754.343445,483.478424 787.287598,486.977325 
	C820.230713,490.476135 853.182312,493.894745 886.124451,497.402649 
	C925.026917,501.545288 963.941895,505.584595 1002.803894,510.079559 
	C1009.303894,510.831390 1013.091431,508.971436 1017.480713,504.243958 
	C1027.148682,493.831085 1037.834473,484.363190 1047.961060,474.647675 
	C959.672668,474.647675 870.586548,474.647675 780.500366,474.647491 
M858.500061,898.306702 
	C772.376892,898.306702 686.253784,898.306702 600.130615,898.306702 
	C600.112366,898.501099 600.094116,898.695496 600.075928,898.889893 
	C704.215271,911.663757 808.354614,924.437561 912.723816,937.239624 
	C917.144043,924.246521 921.452454,911.582092 925.968628,898.306763 
	C903.368713,898.306763 881.434448,898.306763 858.500061,898.306702 
M711.500000,983.997009 
	C669.471497,983.997009 627.443054,983.997009 585.414551,983.997009 
	C585.408691,984.199036 585.402893,984.401062 585.397034,984.603088 
	C685.040955,997.349304 784.684814,1010.095581 884.478271,1022.860962 
	C888.916260,1009.781677 893.214294,997.114807 897.665405,983.997009 
	C835.450012,983.997009 773.975037,983.997009 711.500000,983.997009 
z"/>
<path fill="#FF0000" opacity="1.000000" stroke="none" 
	d="
M1140.648926,890.692932 
	C1160.538330,889.352234 1179.957153,888.026123 1199.530396,886.689453 
	C1201.977661,871.391907 1204.285034,856.969971 1206.686768,841.957336 
	C1196.762451,840.965942 1187.022217,840.030762 1177.290649,839.013916 
	C1144.365356,835.573486 1111.192993,834.011047 1078.859009,826.064941 
	C1060.701782,821.602905 1043.061035,815.780945 1027.076660,805.822510 
	C999.248779,788.485657 984.781189,762.794067 980.998230,730.749817 
	C977.290161,699.339600 982.744202,668.650513 989.340027,638.157898 
	C995.615845,609.144958 1004.726013,581.087585 1018.372986,554.567688 
	C1040.774658,511.034882 1076.835449,485.392334 1123.416870,473.045807 
	C1161.948608,462.832855 1201.271118,460.175232 1240.816528,461.633057 
	C1274.078735,462.859314 1307.338745,465.180542 1340.482056,468.276062 
	C1367.959717,470.842438 1395.052124,476.359955 1422.117920,483.471893 
	C1406.841187,530.483337 1391.654053,577.219177 1376.179443,624.839661 
	C1309.037842,612.240417 1241.585327,607.070251 1173.184082,615.971436 
	C1170.866211,630.060425 1168.548706,644.147705 1166.107910,658.984070 
	C1172.178223,659.656677 1178.195068,660.331970 1184.213989,660.988708 
	C1215.639893,664.417419 1247.239624,666.614746 1278.109253,674.022583 
	C1300.358765,679.361877 1322.028442,686.330017 1341.282104,699.096252 
	C1369.923340,718.087097 1386.383667,744.892273 1389.991333,779.003967 
	C1394.276245,819.518494 1386.422485,858.529663 1373.545776,896.733521 
	C1366.077148,918.892029 1355.838379,939.725464 1343.365845,959.501770 
	C1330.036011,980.637512 1311.202148,995.489746 1290.041016,1008.160767 
	C1265.268555,1022.994324 1238.503906,1030.612793 1210.050659,1034.109009 
	C1152.739624,1041.151001 1095.360352,1040.972046 1037.934814,1036.730225 
	C998.042053,1033.783569 958.588379,1027.673462 919.733704,1017.986938 
	C918.135803,1017.588562 916.561035,1017.097534 914.539429,1016.526489 
	C930.976746,968.084106 947.353943,919.819031 964.004883,870.746948 
	C1021.618408,887.723328 1080.405151,893.769043 1140.648926,890.692932 
z"/>
<path fill="#FF0101" opacity="1.000000" stroke="none" 
	d="
M821.000000,282.998352 
	C1103.449585,282.998352 1385.399170,282.998352 1667.617554,282.998352 
	C1667.617554,594.745178 1667.617554,906.124207 1667.617554,1217.752441 
	C1355.885132,1217.752441 1044.299805,1217.752441 732.369751,1217.752441 
	C732.369751,1166.138550 732.369751,1114.443359 732.369751,1062.511963 
	C749.461548,1062.511963 766.397949,1062.511963 783.951965,1062.511963 
	C783.951965,1096.898560 783.951965,1131.261108 783.951965,1165.879883 
	C1061.455688,1165.879883 1338.342896,1165.879883 1615.485596,1165.879883 
	C1615.485596,888.938782 1615.485596,612.204041 1615.485596,335.164062 
	C1338.451294,335.164062 1061.566406,335.164062 784.269287,335.164062 
	C784.269287,369.506134 784.269287,403.772400 784.269287,438.380096 
	C766.797058,438.380096 749.732544,438.380096 732.345337,438.380096 
	C732.345337,386.793549 732.345337,335.221832 732.345337,282.998352 
	C761.655701,282.998352 791.077820,282.998352 821.000000,282.998352 
z"/>
<path fill="#FF0303" opacity="1.000000" stroke="none" 
	d="
M621.000000,644.069580 
	C734.246216,644.069580 846.992493,644.069580 959.787781,644.069580 
	C957.742615,657.458191 955.750610,670.498657 953.720825,683.786499 
	C830.648010,670.718140 707.720520,657.665222 585.015259,644.635864 
	C584.747131,644.328796 584.679321,644.251160 584.611511,644.173523 
	C596.574341,644.138855 608.537170,644.104248 621.000000,644.069580 
z"/>
<path fill="#FF0606" opacity="1.000000" stroke="none" 
	d="
M618.065063,559.230713 
	C740.159058,559.230774 861.764771,559.230774 984.234741,559.230774 
	C979.756592,572.415283 975.423767,585.171875 970.999634,598.197388 
	C850.251831,585.388489 729.780457,572.608826 609.352356,559.833801 
	C609.323914,559.498108 609.315002,559.392700 609.306091,559.287231 
	C612.062988,559.268372 614.819824,559.249512 618.065063,559.230713 
z"/>
<path fill="#FF0202" opacity="1.000000" stroke="none" 
	d="
M640.708252,816.116150 
	C632.417053,815.361084 624.588745,814.634949 616.760437,813.908813 
	C616.765991,813.822754 616.771545,813.736633 616.777100,813.650574 
	C620.234009,813.650574 623.690857,813.650574 627.147705,813.650513 
	C747.259094,813.648682 867.370544,813.640015 987.481873,813.709717 
	C989.319641,813.710754 991.651245,814.134216 992.920410,815.281128 
	C1012.985596,833.413208 1037.161987,843.156982 1062.829834,849.923340 
	C1066.333130,850.846741 1069.854248,851.702026 1073.338379,852.916870 
	C1060.174927,851.831726 1047.009033,850.775635 1033.848511,849.655518 
	C1004.152832,847.128052 974.460266,844.563049 944.765564,842.024353 
	C910.922974,839.130920 877.079834,836.243469 843.236084,833.364380 
	C814.368652,830.908630 785.499268,828.475891 756.632019,826.018921 
	C722.789062,823.138611 688.947388,820.243774 655.105286,817.353271 
	C650.460083,816.956543 645.815857,816.548157 640.708252,816.116150 
z"/>
<path fill="#FF0202" opacity="1.000000" stroke="none" 
	d="
M868.000000,728.919617 
	C896.968140,728.919617 925.436340,728.919617 953.525757,728.919617 
	C955.819336,742.276367 958.035217,755.180603 960.318298,768.476135 
	C838.686218,755.541016 716.720215,742.570435 594.754211,729.599792 
	C594.756104,729.373108 594.757935,729.146362 594.759766,728.919617 
	C685.673218,728.919617 776.586609,728.919617 868.000000,728.919617 
z"/>
<path fill="#FF0202" opacity="1.000000" stroke="none" 
	d="
M781.000366,474.647583 
	C870.586548,474.647675 959.672668,474.647675 1047.961060,474.647675 
	C1037.834473,484.363190 1027.148682,493.831085 1017.480713,504.243958 
	C1013.091431,508.971436 1009.303894,510.831390 1002.803894,510.079559 
	C963.941895,505.584595 925.026917,501.545288 886.124451,497.402649 
	C853.182312,493.894745 820.230713,490.476135 787.287598,486.977325 
	C754.343445,483.478424 721.403015,479.943329 688.465332,476.383667 
	C684.300232,475.933563 680.161621,475.238159 676.015259,474.651917 
	C710.846680,474.647491 745.673523,474.647491 781.000366,474.647583 
z"/>
<path fill="#FF0707" opacity="1.000000" stroke="none" 
	d="
M859.000122,898.306763 
	C881.434448,898.306763 903.368713,898.306763 925.968628,898.306763 
	C921.452454,911.582092 917.144043,924.246521 912.723816,937.239624 
	C808.354614,924.437561 704.215271,911.663757 600.075928,898.889893 
	C600.094116,898.695496 600.112366,898.501099 600.130615,898.306702 
	C686.253784,898.306702 772.376892,898.306702 859.000122,898.306763 
z"/>
<path fill="#FF0202" opacity="1.000000" stroke="none" 
	d="
M712.000000,983.997009 
	C773.975037,983.997009 835.450012,983.997009 897.665405,983.997009 
	C893.214294,997.114807 888.916260,1009.781677 884.478271,1022.860962 
	C784.684814,1010.095581 685.040955,997.349304 585.397034,984.603088 
	C585.402893,984.401062 585.408691,984.199036 585.414551,983.997009 
	C627.443054,983.997009 669.471497,983.997009 712.000000,983.997009 
z"/>
</svg>